<svg width="332" height="324" viewBox="0 0 332 324" fill="none" xmlns="http://www.w3.org/2000/svg">
<path d="M155.996 7.5502C158.54 -2.51661 172.843 -2.51661 175.387 7.55021L195.99 89.0847C197.516 95.127 204.138 98.3159 209.814 95.7423L286.406 61.0144C295.863 56.7266 304.78 67.9091 298.496 76.1745L247.595 143.118C243.823 148.079 245.459 155.245 251.01 158.078L325.915 196.307C335.164 201.027 331.981 214.972 321.601 215.212L237.526 217.155C231.295 217.299 226.713 223.045 227.959 229.152L244.773 311.551C246.849 321.724 233.962 327.93 227.303 319.964L173.364 255.443C169.366 250.662 162.017 250.662 158.019 255.443L104.08 319.964C97.4205 327.93 84.534 321.724 86.61 311.551L103.424 229.152C104.67 223.045 100.087 217.299 93.8569 217.155L9.78212 215.212C-0.598344 214.972 -3.78107 201.027 5.46731 196.307L80.3729 158.078C85.924 155.245 87.5595 148.079 83.7874 143.118L32.8869 76.1745C26.6023 67.9091 35.5201 56.7266 44.9767 61.0144L121.569 95.7423C127.245 98.3159 133.866 95.127 135.393 89.0846L155.996 7.5502Z" fill="#BFDF94"/>
</svg>
